<svg width="23" height="23" viewBox="0 0 23 23" fill="none" xmlns="http://www.w3.org/2000/svg">
<path d="M11.4583 0.666656C5.48772 0.666656 0.625 5.52938 0.625 11.5C0.625 17.4706 5.48772 22.3333 11.4583 22.3333C17.4289 22.3333 22.2917 17.4706 22.2917 11.5C22.2917 5.52938 17.4289 0.666656 11.4583 0.666656ZM11.4583 2.83332C16.2582 2.83332 20.125 6.7001 20.125 11.5C20.125 16.2999 16.2582 20.1667 11.4583 20.1667C6.65845 20.1667 2.79167 16.2999 2.79167 11.5C2.79167 6.7001 6.65845 2.83332 11.4583 2.83332ZM11.4583 4.99999C7.86817 4.99999 4.95833 7.90982 4.95833 11.5C4.95833 15.0902 7.86817 18 11.4583 18C15.0485 18 17.9583 15.0902 17.9583 11.5C17.9583 10.5044 17.7276 9.56467 17.3278 8.72183L11.617 14.4326C11.4134 14.6363 11.1382 14.75 10.8511 14.75C10.564 14.75 10.2877 14.6363 10.0851 14.4326L7.42757 11.7751C7.00399 11.3515 7.00399 10.6667 7.42757 10.2432C7.85116 9.81957 8.53589 9.81957 8.95947 10.2432L10.8511 12.1348L16.0688 6.9191C14.8913 5.73393 13.261 4.99999 11.4583 4.99999Z" fill="#30C18B"/>
</svg>
