<svg width="526" height="526" viewBox="0 0 526 526" fill="none" xmlns="http://www.w3.org/2000/svg">
<g clip-path="url(#clip0)" filter="url(#filter0_d)">
<path d="M232.012 183.177C232.027 182.597 232.012 182.002 232.012 181.131C227.685 178.636 223.504 176.242 219.061 173.689C219.061 175.299 219.032 176.706 219.061 178.143C219.323 193.042 219.673 207.986 219.804 222.813C219.848 228.268 218.697 232.809 215.987 235.856C215.506 236.392 214.982 236.828 214.428 237.132L227.7 229.516C228.283 229.196 228.822 228.761 229.317 228.195C230.147 227.267 230.803 226.193 231.356 225.004C231.094 221.739 230.949 218.518 230.905 215.399C230.774 204.388 231.604 193.898 232.012 183.177Z" fill="url(#paint0_linear)"/>
<path d="M279.971 184.584C280.277 178.404 277.509 173.355 271.813 170.062C263.989 165.535 256.181 161.023 248.358 156.526C239.471 151.419 230.584 146.341 221.712 141.307C219.337 139.958 216.73 138.986 214.646 139C211.223 139.044 208.353 140.03 205.891 141.67L194.6 148.184C196.582 147.241 198.796 146.689 201.316 146.66C203.4 146.631 206.007 147.618 208.382 148.967C217.269 154.001 226.155 159.079 235.028 164.186C242.851 168.683 250.659 173.195 258.483 177.722C264.179 181.015 266.947 186.064 266.641 192.244C266.539 194.479 265.927 196.031 264.863 196.829L277.771 189.43C279.097 188.748 279.854 187.109 279.971 184.584Z" fill="url(#paint1_linear)"/>
<path d="M260.828 262.217L260.945 262.144C260.915 262.159 260.872 262.188 260.828 262.217Z" fill="#455A64"/>
<path d="M214.238 237.248L214.326 237.205C214.297 237.219 214.267 237.234 214.238 237.248Z" fill="#455A64"/>
<path d="M266.641 192.244C266.947 186.064 264.179 181.015 258.482 177.722C250.659 173.195 242.851 168.683 235.027 164.186C226.141 159.079 217.254 154.001 208.382 148.967C206.007 147.618 203.4 146.646 201.316 146.66C198.796 146.689 196.582 147.241 194.6 148.184C193.814 148.561 193.056 148.996 192.342 149.489C192.313 149.504 192.284 149.533 192.255 149.547C189.399 151.535 187.069 154.422 185.029 157.744C184.912 157.933 185.116 158.47 185.277 159.645C187.229 160.109 189.064 160.501 190.929 161.009C195.635 162.3 200.34 163.591 205.06 165.027C205.337 165.115 205.585 165.216 205.833 165.361C207.013 166.043 207.697 167.334 207.726 169.075C208.047 184.584 209.052 200.558 202.263 210.945C200.734 213.296 199.889 216.647 199.481 220.1C198.927 224.888 201.914 231.039 206.168 235.014C206.954 235.754 207.741 236.334 208.513 236.784C210.553 237.959 212.534 238.119 214.224 237.234C214.253 237.219 214.282 237.219 214.311 237.205C214.34 237.19 214.384 237.161 214.413 237.147C214.967 236.828 215.491 236.407 215.972 235.87C218.682 232.823 219.833 228.282 219.789 222.827C219.658 208 219.308 193.042 219.046 178.157C219.017 176.721 219.046 175.314 219.046 173.703C223.489 176.257 227.656 178.65 231.997 181.146C231.997 182.002 232.012 182.611 231.997 183.191C231.589 193.913 230.759 204.402 230.89 215.414C230.919 218.533 231.079 221.754 231.342 225.018C231.72 229.762 232.361 234.622 233.338 239.526C235.129 248.608 240.782 256.123 247.862 260.2C248.867 260.78 249.887 261.274 250.936 261.709C254.753 263.276 258.177 263.363 260.828 262.202C260.872 262.188 260.901 262.159 260.944 262.144C261.411 261.926 261.848 261.68 262.256 261.39C264.659 259.721 266.16 256.791 266.349 252.83C266.539 248.55 264.907 244.183 261.819 241.151C261.687 241.76 261.469 242.312 261.44 242.965C261.134 248.057 258.963 249.885 254.622 248.652C253.937 248.463 253.252 248.173 252.597 247.796C249.756 246.156 247.265 242.834 245.502 238.061C244.599 235.638 243.885 233.128 243.492 230.792C240.957 215.457 242.472 202.56 244.847 190.242C244.992 189.517 246.362 189.256 247.207 189.691C248.576 190.402 249.945 191.171 251.3 191.969C251.898 192.317 252.495 192.665 253.092 193.013C253.573 193.289 254.039 193.565 254.52 193.84C255.088 194.174 255.671 194.493 256.239 194.812C257.157 195.335 258.075 195.842 258.992 196.321C261.571 197.67 263.538 197.801 264.834 196.829C265.927 196.031 266.539 194.493 266.641 192.244Z" fill="url(#paint2_linear)"/>
<path d="M258.861 230.401C257.958 227.978 257.244 225.468 256.851 223.132C255.146 212.773 255.277 203.517 256.283 194.812C255.714 194.493 255.132 194.174 254.564 193.84C254.083 193.565 253.602 193.289 253.136 193.013C252.539 192.665 251.941 192.317 251.344 191.969C249.975 191.185 248.605 190.416 247.25 189.691C246.405 189.256 245.036 189.517 244.89 190.242C242.501 202.56 241 215.457 243.535 230.792C243.929 233.128 244.657 235.638 245.546 238.061C247.309 242.834 249.785 246.156 252.641 247.796C253.296 248.173 253.966 248.463 254.666 248.652C259.007 249.885 261.178 248.057 261.483 242.965C261.513 242.312 261.731 241.775 261.862 241.151L264.892 239.41C262.474 237.611 260.391 234.564 258.861 230.401Z" fill="url(#paint3_linear)"/>
<path d="M275.163 233.491L264.863 239.41L261.833 241.151C264.907 244.183 266.553 248.55 266.364 252.83C266.189 256.791 264.674 259.721 262.27 261.39L274.944 254.15C274.974 254.136 275.017 254.107 275.046 254.092L275.163 254.034V254.02C277.814 252.409 279.504 249.362 279.694 245.17C279.883 240.89 278.237 236.523 275.163 233.491Z" fill="url(#paint4_linear)"/>
</g>
<circle cx="233.5" cy="202.5" r="93.5" fill="white" fill-opacity="0.3"/>
<g opacity="0.8" filter="url(#filter1_d)">
<path fill-rule="evenodd" clip-rule="evenodd" d="M269.018 318.948L269.143 385.847C268.166 405.104 252.99 420.28 233.733 421.257C213.461 421.219 198.228 405.987 198.19 385.714L198.065 318.815C179.808 312.699 161.544 302.529 147.327 288.312C99.5972 240.582 99.4529 163.547 147.004 115.996C194.555 68.4454 271.59 68.5897 319.319 116.319C367.049 164.049 367.193 241.084 319.642 288.635C305.478 302.799 287.252 312.901 269.018 318.948ZM167.314 136.307C130.892 172.729 131.002 231.519 167.561 268.077C204.12 304.636 262.91 304.746 299.332 268.324C335.754 231.902 335.643 173.112 299.085 136.554C262.526 99.9949 203.736 99.8847 167.314 136.307Z" fill="url(#paint5_linear)"/>
</g>
<defs>
<filter id="filter0_d" x="154" y="119" width="195" height="224" filterUnits="userSpaceOnUse" color-interpolation-filters="sRGB">
<feFlood flood-opacity="0" result="BackgroundImageFix"/>
<feColorMatrix in="SourceAlpha" type="matrix" values="0 0 0 0 0 0 0 0 0 0 0 0 0 0 0 0 0 0 127 0"/>
<feOffset dx="19" dy="30"/>
<feGaussianBlur stdDeviation="25"/>
<feColorMatrix type="matrix" values="0 0 0 0 0.988235 0 0 0 0 0.733333 0 0 0 0 0.243137 0 0 0 0.6 0"/>
<feBlend mode="normal" in2="BackgroundImageFix" result="effect1_dropShadow"/>
<feBlend mode="normal" in="SourceGraphic" in2="effect1_dropShadow" result="shape"/>
</filter>
<filter id="filter1_d" x="0.150024" y="0" width="525.7" height="525.7" filterUnits="userSpaceOnUse" color-interpolation-filters="sRGB">
<feFlood flood-opacity="0" result="BackgroundImageFix"/>
<feColorMatrix in="SourceAlpha" type="matrix" values="0 0 0 0 0 0 0 0 0 0 0 0 0 0 0 0 0 0 127 0"/>
<feOffset dx="30" dy="30"/>
<feGaussianBlur stdDeviation="30"/>
<feColorMatrix type="matrix" values="0 0 0 0 0.0627451 0 0 0 0 0.0313726 0 0 0 0 0.529412 0 0 0 0.2 0"/>
<feBlend mode="normal" in2="BackgroundImageFix" result="effect1_dropShadow"/>
<feBlend mode="normal" in="SourceGraphic" in2="effect1_dropShadow" result="shape"/>
</filter>
<linearGradient id="paint0_linear" x1="223.223" y1="173.689" x2="223.223" y2="237.132" gradientUnits="userSpaceOnUse">
<stop stop-color="#FFCB13"/>
<stop offset="1" stop-color="#E77653"/>
</linearGradient>
<linearGradient id="paint1_linear" x1="237.297" y1="139" x2="237.297" y2="196.829" gradientUnits="userSpaceOnUse">
<stop stop-color="#FFCB13"/>
<stop offset="1" stop-color="#E77653"/>
</linearGradient>
<linearGradient id="paint2_linear" x1="225.829" y1="146.66" x2="225.829" y2="262.99" gradientUnits="userSpaceOnUse">
<stop stop-color="#FF2E00" stop-opacity="0.46"/>
<stop offset="1" stop-color="#FFC700"/>
</linearGradient>
<linearGradient id="paint3_linear" x1="253.556" y1="189.479" x2="253.556" y2="249.023" gradientUnits="userSpaceOnUse">
<stop stop-color="#FFCB13"/>
<stop offset="1" stop-color="#E77653"/>
</linearGradient>
<linearGradient id="paint4_linear" x1="270.771" y1="233.491" x2="270.771" y2="261.39" gradientUnits="userSpaceOnUse">
<stop stop-color="#FFCB13"/>
<stop offset="1" stop-color="#E77653"/>
</linearGradient>
<linearGradient id="paint5_linear" x1="232.7" y1="80" x2="104.446" y2="318.544" gradientUnits="userSpaceOnUse">
<stop stop-color="white" stop-opacity="0.53"/>
<stop offset="0.270833" stop-color="white" stop-opacity="0.87"/>
<stop offset="1" stop-color="white" stop-opacity="0"/>
</linearGradient>
<clipPath id="clip0">
<rect width="95" height="124" fill="white" transform="translate(185 139)"/>
</clipPath>
</defs>
</svg>
