<svg width="209" height="198" viewBox="0 0 209 198" fill="none" xmlns="http://www.w3.org/2000/svg">
<g opacity="0.4" clip-path="url(#clip0)" filter="url(#filter0_d)">
<path d="M95.6187 75.7666C96.483 74.2451 97.3794 73.2201 98.3718 72.6435C100.036 71.6826 101.973 71.9869 104.55 73.3802C106.247 74.3092 108.232 74.8857 110.329 74.9498C113.082 75.0139 115.755 74.2931 118.188 72.8838C121.581 70.9298 124.51 67.6626 126.543 63.4505C130.801 54.6099 130.993 43.6231 126.927 40.2918C125.071 38.7864 121.965 39.0746 118.54 40.8204C118.86 45.4809 117.772 51.3427 115.291 56.4677C113.258 60.6798 110.329 63.947 106.935 65.9009C104.502 67.3103 101.829 68.047 99.0761 67.9669C98.5319 67.9509 98.0036 67.8869 97.4754 67.8068C95.2345 72.083 93.1057 76.4072 90.9128 80.6994L97.2834 84.6553C93.954 82.3971 93.4738 79.4822 95.6187 75.7666Z" fill="#BA68C8"/>
<path d="M133.529 28.242C130.664 26.3522 126.678 26.1279 121.46 28.194C119.875 28.8186 118.291 29.5873 116.738 30.4842C111.376 33.5913 106.286 38.3159 102.124 44.8663C96.1378 54.2675 90.9357 64.2773 85.4135 74.0469C81.2838 81.334 77.5063 88.8774 72.9925 95.8442C70.4954 99.704 67.7103 102.411 65.0052 103.98C62.6043 105.374 60.2353 105.854 58.1705 105.422C54.9051 104.749 52.6002 101.818 51.8319 97.8942C51.4798 96.0845 51.4637 94.0505 51.8319 91.9204C53.0004 85.1137 57.8663 76.8977 63.2125 72.7496C64.1729 72.0129 65.1013 71.3883 65.9816 70.8758C68.6227 69.3543 70.9596 68.7937 73.0725 68.9699C75.1693 69.1621 77.0261 70.075 78.7388 71.5324C79.8912 72.5094 81.2358 72.6695 82.6604 71.8527C83.6368 71.2922 84.6612 70.2512 85.7016 68.6816C88.0705 65.0781 87.8144 62.4836 86.1978 60.6097C81.652 55.3566 73.7288 55.5648 65.7735 60.1453C61.6439 62.5316 57.4982 66.1031 53.8167 70.7316C48.9187 76.8817 45.8935 83.4321 43.7166 90.2067C40.7074 99.5599 43.0443 107.6 43.4925 108.801C44.645 111.876 46.3737 114.15 48.5026 115.64C48.8867 115.912 49.2869 116.152 49.687 116.376C49.7511 116.408 49.8151 116.44 49.8791 116.472C53.9928 118.554 59.2749 118.09 64.7491 114.919C67.5022 113.317 70.3194 111.059 73.0565 108.096C77.5543 103.227 81.652 96.9653 85.1894 90.9114C87.1902 87.4841 89.0469 83.9766 90.8397 80.4532C93.0326 76.161 95.1614 71.8367 97.4023 67.5605C97.6264 67.1281 97.8505 66.7117 98.0746 66.2793C101.996 58.88 105.886 51.4007 111.728 45.571C113.601 43.6972 115.57 42.1917 117.458 41.1026C117.795 40.9104 118.131 40.7343 118.467 40.5741C121.892 38.8444 125.013 38.5401 126.854 40.0456C130.92 43.3608 130.728 54.3636 126.47 63.2043C124.437 67.4164 121.508 70.6836 118.115 72.6375C115.682 74.0469 113.009 74.7836 110.256 74.7035C108.159 74.6395 106.19 74.0629 104.477 73.134C101.9 71.7406 99.9634 71.4363 98.2987 72.3973C97.3063 72.9738 96.4099 73.9988 95.5456 75.5203C93.4167 79.236 93.8809 82.1508 97.2102 84.409C97.3863 84.5372 97.5784 84.6493 97.7865 84.7774C103.373 88.1407 109.855 88.2528 117.186 84.0086C119.379 82.7434 121.668 81.0778 124.021 78.9957C133.305 70.7797 137.691 59.8089 138.939 48.8062C140.012 39.3249 138.379 31.4291 133.529 28.242Z" fill="url(#paint0_linear)"/>
<path d="M73.6576 52.5439H73.6256C68.9517 48.7001 61.7808 49.2287 54.5619 53.3927C50.4322 55.7791 46.2865 59.3506 42.6051 63.9791C37.7071 70.1291 34.6819 76.6956 32.505 83.4542C29.4958 92.8234 31.8327 100.863 32.2809 102.064C33.4334 105.123 35.146 107.398 37.2589 108.887V108.903L37.579 109.095C37.8351 109.271 38.0912 109.432 38.3633 109.576L48.5595 115.886C46.4306 114.396 44.7019 112.122 43.5494 109.047C43.1013 107.83 40.7643 99.8062 43.7735 90.437C45.9504 83.6624 48.9756 77.112 53.8736 70.962C57.5551 66.3494 61.7008 62.7779 65.8305 60.3756C72.2971 56.6439 78.7317 55.8111 83.3575 58.4377L80.1883 56.5158L73.6576 52.5439Z" fill="#BA68C8"/>
<path d="M121.949 21.2652C119.116 19.5995 115.242 19.4714 110.248 21.4413C108.663 22.066 107.079 22.8347 105.526 23.7316C100.164 26.8386 95.0739 31.5633 90.9123 38.1137C87.1187 44.0715 83.6453 50.2856 80.1879 56.5157L83.3572 58.4376L83.8854 58.7579L83.8694 58.7739C84.7337 59.3345 85.5341 60.0071 86.2544 60.8399C87.871 62.7138 88.1271 65.3243 85.7582 68.9118C84.7338 70.4814 83.7093 71.5224 82.7169 72.083C81.2924 72.8998 79.9478 72.7396 78.7954 71.7626C77.0827 70.3052 75.2099 69.3923 73.1291 69.2001C69.3996 75.8787 65.8941 82.7334 61.7645 89.0916C59.2675 92.9514 56.4823 95.6581 53.7772 97.2276C53.137 97.5959 52.5127 97.8842 51.8725 98.1245C52.6248 102.064 54.9297 104.979 58.211 105.652C60.2759 106.084 62.6288 105.604 65.0458 104.21C67.7509 102.641 70.536 99.9342 73.033 96.0745C77.5468 89.1076 81.3244 81.5642 85.454 74.2771C90.9763 64.5235 96.1784 54.4977 102.165 45.0965C106.342 38.5461 111.417 33.8055 116.779 30.7144C118.331 29.8176 119.9 29.0648 121.501 28.4242C126.719 26.3582 130.704 26.5984 133.57 28.4722L121.949 21.2652Z" fill="#BA68C8"/>
<path d="M95.6187 75.7666C96.483 74.2451 97.3794 73.2201 98.3718 72.6435C100.036 71.6826 101.973 71.9869 104.55 73.3802C106.247 74.3092 108.232 74.8857 110.329 74.9498C113.082 75.0139 115.755 74.2931 118.188 72.8838C121.581 70.9298 124.51 67.6626 126.543 63.4505C130.801 54.6099 130.993 43.6231 126.927 40.2918C125.071 38.7864 121.965 39.0746 118.54 40.8204C118.86 45.4809 117.772 51.3427 115.291 56.4677C113.258 60.6798 110.329 63.947 106.935 65.9009C104.502 67.3103 101.829 68.047 99.0761 67.9669C98.5319 67.9509 98.0036 67.8869 97.4754 67.8068C95.2345 72.083 93.1057 76.4072 90.9128 80.6994L97.2834 84.6553C93.954 82.3971 93.4738 79.4822 95.6187 75.7666Z" fill="url(#paint1_linear)"/>
<path d="M73.6576 52.5439H73.6256C68.9517 48.7001 61.7808 49.2287 54.5619 53.3927C50.4322 55.7791 46.2865 59.3506 42.6051 63.9791C37.7071 70.1291 34.6819 76.6956 32.505 83.4542C29.4958 92.8234 31.8327 100.863 32.2809 102.064C33.4334 105.123 35.146 107.398 37.2589 108.887V108.903L37.579 109.095C37.8351 109.271 38.0912 109.432 38.3633 109.576L48.5595 115.886C46.4306 114.396 44.7019 112.122 43.5494 109.047C43.1013 107.83 40.7643 99.8062 43.7735 90.437C45.9504 83.6624 48.9756 77.112 53.8736 70.962C57.5551 66.3494 61.7008 62.7779 65.8305 60.3756C72.2971 56.6439 78.7317 55.8111 83.3575 58.4377L80.1883 56.5158L73.6576 52.5439Z" fill="url(#paint2_linear)"/>
<path d="M121.949 21.2652C119.116 19.5995 115.242 19.4714 110.248 21.4413C108.663 22.066 107.079 22.8347 105.526 23.7316C100.164 26.8386 95.0739 31.5633 90.9123 38.1137C87.1187 44.0715 83.6453 50.2856 80.1879 56.5157L83.3572 58.4376L83.8854 58.7579L83.8694 58.7739C84.7337 59.3345 85.5341 60.0071 86.2544 60.8399C87.871 62.7138 88.1271 65.3243 85.7582 68.9118C84.7338 70.4814 83.7093 71.5224 82.7169 72.083C81.2924 72.8998 79.9478 72.7396 78.7954 71.7626C77.0827 70.3052 75.2099 69.3923 73.1291 69.2001C69.3996 75.8787 65.8941 82.7334 61.7645 89.0916C59.2675 92.9514 56.4823 95.6581 53.7772 97.2276C53.137 97.5959 52.5127 97.8842 51.8725 98.1245C52.6248 102.064 54.9297 104.979 58.211 105.652C60.2759 106.084 62.6288 105.604 65.0458 104.21C67.7509 102.641 70.536 99.9342 73.033 96.0745C77.5468 89.1076 81.3244 81.5642 85.454 74.2771C90.9763 64.5235 96.1784 54.4977 102.165 45.0965C106.342 38.5461 111.417 33.8055 116.779 30.7144C118.331 29.8176 119.9 29.0648 121.501 28.4242C126.719 26.3582 130.704 26.5984 133.57 28.4722L121.949 21.2652Z" fill="url(#paint3_linear)"/>
<path d="M83.3738 58.4536C83.5499 58.5497 83.7099 58.6778 83.886 58.7739L83.902 58.7579L83.3738 58.4536Z" fill="#455A64"/>
</g>
<defs>
<filter id="filter0_d" x="0" y="0" width="208.316" height="198" filterUnits="userSpaceOnUse" color-interpolation-filters="sRGB">
<feFlood flood-opacity="0" result="BackgroundImageFix"/>
<feColorMatrix in="SourceAlpha" type="matrix" values="0 0 0 0 0 0 0 0 0 0 0 0 0 0 0 0 0 0 127 0"/>
<feOffset dx="19" dy="30"/>
<feGaussianBlur stdDeviation="25"/>
<feColorMatrix type="matrix" values="0 0 0 0 0.594072 0 0 0 0 0.386719 0 0 0 0 0.9375 0 0 0 0.6 0"/>
<feBlend mode="normal" in2="BackgroundImageFix" result="effect1_dropShadow"/>
<feBlend mode="normal" in="SourceGraphic" in2="effect1_dropShadow" result="shape"/>
</filter>
<linearGradient id="paint0_linear" x1="90.7296" y1="26.7328" x2="90.7296" y2="117.738" gradientUnits="userSpaceOnUse">
<stop stop-color="#8F3EE0"/>
<stop offset="1" stop-color="#2582D8"/>
</linearGradient>
<linearGradient id="paint1_linear" x1="110.387" y1="39.3177" x2="110.387" y2="84.6553" gradientUnits="userSpaceOnUse">
<stop stop-color="#2825A6"/>
<stop offset="1" stop-color="#9949FF"/>
</linearGradient>
<linearGradient id="paint2_linear" x1="57.1755" y1="49.9432" x2="57.1755" y2="115.886" gradientUnits="userSpaceOnUse">
<stop stop-color="#2825A6"/>
<stop offset="1" stop-color="#9949FF"/>
</linearGradient>
<linearGradient id="paint3_linear" x1="92.721" y1="19.9899" x2="92.721" y2="105.805" gradientUnits="userSpaceOnUse">
<stop stop-color="#2825A6"/>
<stop offset="1" stop-color="#9949FF"/>
</linearGradient>
<clipPath id="clip0">
<rect width="108.316" height="98" fill="white" transform="translate(31 20)"/>
</clipPath>
</defs>
</svg>
