<svg width="190" height="198" viewBox="0 0 190 198" fill="none" xmlns="http://www.w3.org/2000/svg">
<g opacity="0.6" clip-path="url(#clip0)" filter="url(#filter0_d)">
<path d="M89.0104 82.7937L80.7451 78.0438C80.6686 78.0058 80.592 77.9678 80.5346 77.9108L80.2477 77.7398L80.2285 77.7588C77.9517 76.6379 74.9097 77.0558 71.4084 79.0698C64.004 83.3257 58.5512 92.4455 58.5895 102.363C58.6086 107.246 59.9288 110.4 62.129 111.863V111.882L62.1864 111.92C62.2821 111.977 62.3778 112.034 62.4734 112.091L71.4466 117.24L74.6227 114.124L86.0066 106.885L90.1201 93.5665L89.0104 82.7937Z" fill="url(#paint0_linear)"/>
<path d="M93.4106 92.7305C93.4298 102.743 87.977 111.768 80.5152 116.062C73.1109 120.318 67.639 117.544 67.6007 107.531C67.5816 97.5944 73.0152 88.4746 80.4196 84.2377C87.8813 79.9438 93.3724 82.8127 93.4106 92.7305ZM76.2104 102.591C76.2295 108.424 78.1619 109.602 80.477 108.272C82.926 106.866 84.7053 103.56 84.6862 97.7274C84.667 91.8946 82.8686 90.6216 80.4196 92.0275C78.1237 93.3575 76.1913 96.7585 76.2104 102.591Z" fill="url(#paint1_linear)"/>
<path d="M120.962 39.6266L45.5601 82.9837L45.6175 100.9L121 57.5242L120.962 39.6266Z" fill="url(#paint2_linear)"/>
<path d="M31 74.434L31.0574 92.3506L45.6173 100.9L45.5599 82.9838L31 74.434Z" fill="url(#paint3_linear)"/>
<path d="M120.962 39.6266L106.402 31.0577L31 74.4339L45.5599 82.9837L120.962 39.6266Z" fill="url(#paint4_linear)"/>
<path d="M89.0104 25.6428L80.7451 20.8929C80.6686 20.8549 80.592 20.8169 80.5346 20.7599L80.2477 20.589L80.2285 20.608C77.9517 19.487 74.9097 19.905 71.4084 21.9189C64.004 26.1748 58.5512 35.2947 58.5895 45.2124C58.6086 50.0953 59.9288 53.2493 62.129 54.7123V54.7313L62.1864 54.7692C62.2821 54.8262 62.3778 54.8832 62.4734 54.9402L71.4466 60.0891L74.6227 56.9732L86.0066 49.7344L90.1201 36.4156L89.0104 25.6428Z" fill="url(#paint5_linear)"/>
<path d="M93.4106 35.5796C93.4298 45.5924 87.977 54.6172 80.5152 58.9111C73.1109 63.167 67.639 60.3931 67.6007 50.3803C67.5816 40.4435 73.0152 31.3237 80.4196 27.0868C87.8813 22.7929 93.3724 25.6428 93.4106 35.5796ZM76.2104 45.4404C76.2295 51.2733 78.1619 52.4513 80.477 51.1213C82.926 49.7153 84.7053 46.4094 84.6862 40.5765C84.667 34.7436 82.8686 33.4706 80.4196 34.8766C78.1237 36.2066 76.1913 39.6075 76.2104 45.4404Z" fill="url(#paint6_linear)"/>
</g>
<defs>
<filter id="filter0_d" x="0" y="0" width="190" height="198" filterUnits="userSpaceOnUse" color-interpolation-filters="sRGB">
<feFlood flood-opacity="0" result="BackgroundImageFix"/>
<feColorMatrix in="SourceAlpha" type="matrix" values="0 0 0 0 0 0 0 0 0 0 0 0 0 0 0 0 0 0 127 0"/>
<feOffset dx="19" dy="30"/>
<feGaussianBlur stdDeviation="25"/>
<feColorMatrix type="matrix" values="0 0 0 0 0.594072 0 0 0 0 0.386719 0 0 0 0 0.9375 0 0 0 0.6 0"/>
<feBlend mode="normal" in2="BackgroundImageFix" result="effect1_dropShadow"/>
<feBlend mode="normal" in="SourceGraphic" in2="effect1_dropShadow" result="shape"/>
</filter>
<linearGradient id="paint0_linear" x1="74.3547" y1="77.1492" x2="74.3547" y2="117.24" gradientUnits="userSpaceOnUse">
<stop stop-color="#2825A6"/>
<stop offset="1" stop-color="#9949FF"/>
</linearGradient>
<linearGradient id="paint1_linear" x1="80.5057" y1="82.3041" x2="80.5057" y2="117.989" gradientUnits="userSpaceOnUse">
<stop stop-color="#8F3EE0"/>
<stop offset="1" stop-color="#2582D8"/>
</linearGradient>
<linearGradient id="paint2_linear" x1="83.2801" y1="39.6266" x2="83.2801" y2="100.9" gradientUnits="userSpaceOnUse">
<stop stop-color="#8F3EE0"/>
<stop offset="1" stop-color="#2582D8"/>
</linearGradient>
<linearGradient id="paint3_linear" x1="38.3087" y1="74.434" x2="38.3087" y2="100.9" gradientUnits="userSpaceOnUse">
<stop stop-color="#2825A6"/>
<stop offset="1" stop-color="#9949FF"/>
</linearGradient>
<linearGradient id="paint4_linear" x1="75.9809" y1="31.0577" x2="75.9809" y2="82.9837" gradientUnits="userSpaceOnUse">
<stop stop-color="#2825A6"/>
<stop offset="1" stop-color="#9949FF"/>
</linearGradient>
<linearGradient id="paint5_linear" x1="74.3547" y1="19.9983" x2="74.3547" y2="60.0891" gradientUnits="userSpaceOnUse">
<stop stop-color="#2825A6"/>
<stop offset="1" stop-color="#9949FF"/>
</linearGradient>
<linearGradient id="paint6_linear" x1="80.5057" y1="25.1495" x2="80.5057" y2="60.8378" gradientUnits="userSpaceOnUse">
<stop stop-color="#8F3EE0"/>
<stop offset="1" stop-color="#2582D8"/>
</linearGradient>
<clipPath id="clip0">
<rect width="90" height="98" fill="white" transform="translate(31 20)"/>
</clipPath>
</defs>
</svg>
