<svg width="199" height="205" viewBox="0 0 199 205" fill="none" xmlns="http://www.w3.org/2000/svg">
<g opacity="0.6" clip-path="url(#clip0)" filter="url(#filter0_d)">
<path d="M47.1048 42.2274C47.7041 42.5662 48.3035 43.0613 48.8507 43.6736C49.9062 44.8332 50.714 46.3185 51.0919 47.8038L59.7957 81.5487L66.2064 59.8555L61.5938 41.9799C61.216 40.5076 60.4081 39.0093 59.3527 37.8497C58.7924 37.2373 58.1931 36.7422 57.6067 36.4035C57.0725 36.0908 56.5383 35.8954 56.0171 35.8432L41.502 34.1755L31 39.9995L45.5282 41.6672C46.0363 41.7323 46.5705 41.9147 47.1048 42.2274Z" fill="#BA68C8"/>
<path d="M79.8355 26.3972C78.741 25.7588 77.7247 25.6676 76.9559 26.0454C76.8647 26.0845 76.7735 26.1366 76.6823 26.1888C76.6693 26.2018 76.6432 26.2148 76.6302 26.2278C76.2262 26.5275 75.9135 26.9705 75.7311 27.5698L66.2064 59.8424L59.7957 81.5356L51.0919 47.7907C50.714 46.3184 49.9062 44.8201 48.8507 43.6605C48.2905 43.0482 47.6911 42.5531 47.1048 42.2143C46.5705 41.9016 46.0363 41.7062 45.5151 41.6541L31 39.9994L34.1402 50.8655L44.5509 52.0642L56.1735 97.1181C56.7598 99.4112 58.3625 101.639 60.2909 102.747C61.2942 103.294 62.2323 103.372 62.9489 103.072C63.001 103.046 63.0532 103.02 63.1053 102.994C63.1704 102.955 63.2356 102.929 63.3007 102.89C63.7307 102.59 64.0565 102.134 64.2519 101.509L83.0017 38.006L90.5068 42.3316L119.472 59.0607L119.498 49.3151L79.8355 26.3972Z" fill="url(#paint0_linear)"/>
<path d="M116.254 93.001L105.999 87.0858L100.866 92.1671L95.9926 81.314L85.0737 74.995L95.2238 96.7924L84.6697 106.616L95.1847 112.688L100.514 107.424L105.452 118.603L116.527 125L105.999 102.59L116.254 93.001Z" fill="url(#paint1_linear)"/>
<path d="M47.1048 42.2274C47.7041 42.5662 48.3035 43.0613 48.8507 43.6736C49.9062 44.8332 50.714 46.3185 51.0919 47.8038L59.7957 81.5487L66.2064 59.8555L61.5938 41.9799C61.216 40.5076 60.4081 39.0093 59.3527 37.8497C58.7924 37.2373 58.1931 36.7422 57.6067 36.4035C57.0725 36.0908 56.5383 35.8954 56.0171 35.8432L41.502 34.1755L31 39.9995L45.5282 41.6672C46.0363 41.7323 46.5705 41.9147 47.1048 42.2274Z" fill="url(#paint2_linear)"/>
<path d="M64.0363 101.507C63.8539 102.132 63.5152 102.601 63.0852 102.888L73.066 97.3246C73.7565 97.1031 74.2777 96.5428 74.5253 95.6829L90.2783 42.3295L82.7731 38.0039L64.0363 101.507Z" fill="url(#paint3_linear)"/>
<path d="M79.6197 26.3952L119.295 49.3L129.797 43.4761L90.1087 20.5713C89.1054 19.998 88.1673 19.8677 87.4246 20.1283H87.4115L87.3334 20.1804C87.19 20.2456 87.0597 20.3107 86.9294 20.4019L76.7402 26.0434C77.5089 25.6786 78.5252 25.7698 79.6197 26.3952Z" fill="url(#paint4_linear)"/>
<path opacity="0.2" d="M62.9487 103.085L63.1051 102.994C63.053 103.02 63.0008 103.046 62.9487 103.085Z" fill="black"/>
<path opacity="0.2" d="M76.6299 26.2277C76.6559 26.2277 76.6689 26.2017 76.6949 26.1887L76.6299 26.2277Z" fill="black"/>
<path d="M106.279 75.4752L95.3468 69.1692L84.8578 74.9931L95.7768 81.3121L106.279 75.4752Z" fill="url(#paint5_linear)"/>
<path d="M116.038 92.9989L126.54 87.175L116.286 81.2468L110.344 84.5431L105.784 87.0838L116.038 92.9989Z" fill="url(#paint6_linear)"/>
<path d="M105.999 102.59L116.501 96.7664L126.755 87.1771L116.253 93.001L105.999 102.59Z" fill="#BA68C8"/>
<path d="M105.999 102.59L116.501 96.7664L126.755 87.1771L116.253 93.001L105.999 102.59Z" fill="url(#paint7_linear)"/>
<path d="M100.65 92.1651L105.783 87.0838L110.344 84.5432L106.279 75.4751L95.7766 81.312L100.65 92.1651Z" fill="url(#paint8_linear)"/>
<path d="M119.283 49.3L119.257 59.0587L129.759 53.2217L129.785 43.4761L119.283 49.3Z" fill="url(#paint9_linear)"/>
<path d="M105.784 102.588L116.312 124.998L126.814 119.174L116.286 96.7643L105.784 102.588Z" fill="url(#paint10_linear)"/>
</g>
<defs>
<filter id="filter0_d" x="0" y="0" width="199" height="205" filterUnits="userSpaceOnUse" color-interpolation-filters="sRGB">
<feFlood flood-opacity="0" result="BackgroundImageFix"/>
<feColorMatrix in="SourceAlpha" type="matrix" values="0 0 0 0 0 0 0 0 0 0 0 0 0 0 0 0 0 0 127 0"/>
<feOffset dx="19" dy="30"/>
<feGaussianBlur stdDeviation="25"/>
<feColorMatrix type="matrix" values="0 0 0 0 0.594072 0 0 0 0 0.386719 0 0 0 0 0.9375 0 0 0 0.6 0"/>
<feBlend mode="normal" in2="BackgroundImageFix" result="effect1_dropShadow"/>
<feBlend mode="normal" in="SourceGraphic" in2="effect1_dropShadow" result="shape"/>
</filter>
<linearGradient id="paint0_linear" x1="75.249" y1="25.822" x2="75.249" y2="103.245" gradientUnits="userSpaceOnUse">
<stop stop-color="#8F3EE0"/>
<stop offset="1" stop-color="#2582D8"/>
</linearGradient>
<linearGradient id="paint1_linear" x1="100.599" y1="74.995" x2="100.599" y2="125" gradientUnits="userSpaceOnUse">
<stop stop-color="#8F3EE0"/>
<stop offset="1" stop-color="#2582D8"/>
</linearGradient>
<linearGradient id="paint2_linear" x1="48.6032" y1="34.1755" x2="48.6032" y2="81.5487" gradientUnits="userSpaceOnUse">
<stop stop-color="#2825A6"/>
<stop offset="1" stop-color="#9949FF"/>
</linearGradient>
<linearGradient id="paint3_linear" x1="76.6817" y1="38.0039" x2="76.6817" y2="102.888" gradientUnits="userSpaceOnUse">
<stop stop-color="#2825A6"/>
<stop offset="1" stop-color="#9949FF"/>
</linearGradient>
<linearGradient id="paint4_linear" x1="103.269" y1="19.9999" x2="103.269" y2="49.3" gradientUnits="userSpaceOnUse">
<stop stop-color="#2825A6"/>
<stop offset="1" stop-color="#9949FF"/>
</linearGradient>
<linearGradient id="paint5_linear" x1="95.5683" y1="69.1692" x2="95.5683" y2="81.3121" gradientUnits="userSpaceOnUse">
<stop stop-color="#2825A6"/>
<stop offset="1" stop-color="#9949FF"/>
</linearGradient>
<linearGradient id="paint6_linear" x1="116.162" y1="81.2468" x2="116.162" y2="92.9989" gradientUnits="userSpaceOnUse">
<stop stop-color="#2825A6"/>
<stop offset="1" stop-color="#9949FF"/>
</linearGradient>
<linearGradient id="paint7_linear" x1="116.377" y1="87.1771" x2="116.377" y2="102.59" gradientUnits="userSpaceOnUse">
<stop stop-color="#2825A6"/>
<stop offset="1" stop-color="#9949FF"/>
</linearGradient>
<linearGradient id="paint8_linear" x1="103.06" y1="75.4751" x2="103.06" y2="92.1651" gradientUnits="userSpaceOnUse">
<stop stop-color="#2825A6"/>
<stop offset="1" stop-color="#9949FF"/>
</linearGradient>
<linearGradient id="paint9_linear" x1="124.521" y1="43.4761" x2="124.521" y2="59.0587" gradientUnits="userSpaceOnUse">
<stop stop-color="#2825A6"/>
<stop offset="1" stop-color="#9949FF"/>
</linearGradient>
<linearGradient id="paint10_linear" x1="116.299" y1="96.7643" x2="116.299" y2="124.998" gradientUnits="userSpaceOnUse">
<stop stop-color="#2825A6"/>
<stop offset="1" stop-color="#9949FF"/>
</linearGradient>
<clipPath id="clip0">
<rect width="99" height="105" fill="white" transform="translate(31 20)"/>
</clipPath>
</defs>
</svg>
