<svg width="200" height="231" viewBox="0 0 200 231" fill="none" xmlns="http://www.w3.org/2000/svg">
<g clip-path="url(#clip0)" filter="url(#filter0_d)">
<path d="M80.4604 66.6708C80.4757 66.0578 80.4604 65.4294 80.4604 64.5097C75.9082 61.8735 71.5094 59.3445 66.8347 56.647C66.8347 58.3483 66.804 59.835 66.8347 61.3524C67.1105 77.0932 67.4784 92.88 67.6163 108.544C67.6623 114.307 66.4515 119.105 63.6007 122.323C63.0949 122.89 62.5431 123.35 61.9607 123.672L75.9236 115.625C76.5367 115.288 77.1038 114.828 77.6249 114.231C78.4985 113.25 79.1882 112.115 79.7707 110.859C79.4948 107.41 79.3415 104.007 79.2955 100.712C79.1576 89.0789 80.0312 77.9975 80.4604 66.6708Z" fill="url(#paint0_linear)"/>
<path d="M130.917 68.1576C131.239 61.6283 128.326 56.2945 122.334 52.8153C114.103 48.0333 105.888 43.2666 97.6571 38.5152C88.3076 33.1201 78.9581 27.7556 69.624 22.4372C67.1257 21.0118 64.3821 19.9848 62.1904 20.0002C58.5885 20.0462 55.5691 21.0884 52.9788 22.8203L41.1004 29.7022C43.1849 28.7059 45.5146 28.1235 48.1662 28.0928C50.3579 28.0622 53.1015 29.1044 55.5998 30.5298C64.9492 35.8483 74.2987 41.2128 83.6329 46.6079C91.8635 51.3592 100.079 56.1259 108.309 60.908C114.302 64.3872 117.214 69.721 116.892 76.2503C116.785 78.6107 116.141 80.2507 115.023 81.0937L128.602 73.2769C129.997 72.5565 130.794 70.8246 130.917 68.1576Z" fill="url(#paint1_linear)"/>
<path d="M110.777 150.173L110.9 150.096C110.869 150.111 110.823 150.142 110.777 150.173Z" fill="#455A64"/>
<path d="M61.761 123.795L61.8529 123.749C61.8223 123.764 61.7916 123.779 61.761 123.795Z" fill="#455A64"/>
<path d="M66.5191 61.3735C66.5977 65.8528 66.6838 70.338 66.7698 74.8241C66.9859 86.0893 67.2021 97.3606 67.3008 108.562C67.3465 114.291 66.1409 119.001 63.3606 122.14C62.8774 122.681 62.3527 123.104 61.801 123.424C61.7878 123.431 61.7745 123.439 61.7629 123.446C61.7526 123.452 61.7436 123.457 61.7371 123.461L61.7148 123.474C61.6985 123.478 61.6561 123.489 61.6117 123.511L61.6116 123.511L61.6062 123.514C59.9422 124.389 57.9692 124.249 55.8881 123.045C55.0967 122.582 54.2875 121.983 53.476 121.216L53.4753 121.216C51.2666 119.143 49.3848 116.501 48.1285 113.753C46.871 111.004 46.2499 108.171 46.5329 105.713C46.9603 102.081 47.8423 98.5951 49.4141 96.1701C53.0255 90.6209 54.5524 83.5995 55.1401 75.9419C55.6329 69.5216 55.4668 62.6245 55.301 55.741C55.2691 54.4149 55.2371 53.0894 55.2099 51.7679C55.1779 49.8514 54.4221 48.3761 53.0688 47.5904C52.7845 47.4233 52.5023 47.3078 52.1955 47.2109L52.1928 47.21C47.2228 45.6914 42.2688 44.3264 37.3194 42.9626L37.3176 42.9621L37.3171 42.962C35.9269 42.5819 34.549 42.2623 33.1389 41.9353C32.6176 41.8144 32.0918 41.6925 31.5594 41.5661C31.4993 41.1598 31.4361 40.8305 31.3867 40.5727C31.3719 40.496 31.3584 40.4256 31.3466 40.3614C31.3168 40.1997 31.2997 40.0887 31.2953 40.0096C31.2933 39.9734 31.2948 39.9531 31.2957 39.9441C33.4253 36.4635 35.8451 33.4614 38.7916 31.398C38.8052 31.39 38.8168 31.3825 38.8256 31.3763C38.8385 31.3675 38.8506 31.3585 38.8575 31.3532L38.8587 31.3524L38.8682 31.3454L38.878 31.3404L38.8957 31.3282C39.6329 30.8167 40.416 30.3647 41.2302 29.9727C43.2752 28.9954 45.5616 28.4232 48.1689 28.3929C50.2818 28.3784 52.9694 29.3746 55.451 30.7905L55.4512 30.7906C64.7848 36.1088 74.1338 41.473 83.4829 46.8678C91.7131 51.619 99.9281 56.3855 108.159 61.1675L108.159 61.1675C114.058 64.5927 116.909 69.8229 116.593 76.2357L116.593 76.2369C116.487 78.5798 115.854 80.0894 114.814 80.8518L114.811 80.8541C113.593 81.7711 111.672 81.7035 108.985 80.2917L108.985 80.2916C108.024 79.788 107.061 79.2535 106.098 78.7028L106.096 78.702C105.937 78.6119 105.777 78.5222 105.616 78.4325C105.173 78.1841 104.729 77.9355 104.293 77.678L104.29 77.6764C104.038 77.5314 103.79 77.3863 103.541 77.2406L103.539 77.2397C103.291 77.0947 103.042 76.9491 102.789 76.8034C102.789 76.8032 102.788 76.803 102.788 76.8028L101.847 76.2521L100.906 75.701C100.906 75.7008 100.905 75.7007 100.905 75.7005C99.4764 74.8557 98.0312 74.0408 96.5849 73.2868L96.584 73.2864C96.0668 73.0189 95.4109 72.9717 94.8647 73.0912C94.3392 73.2062 93.7819 73.5122 93.669 74.0765L93.6686 74.0787C91.167 87.1083 89.5668 100.773 92.2418 117.023L92.2419 117.024C92.6595 119.514 93.4161 122.183 94.3714 124.757C96.2392 129.835 98.8949 133.417 101.967 135.197L101.967 135.197C102.677 135.607 103.42 135.924 104.167 136.131C106.49 136.793 108.325 136.66 109.619 135.574C110.899 134.499 111.558 132.564 111.72 129.852L111.72 129.847C111.734 129.532 111.794 129.236 111.871 128.932C111.896 128.83 111.925 128.725 111.954 128.616C111.963 128.582 111.972 128.547 111.981 128.512C114.926 131.632 116.474 135.978 116.286 140.242C116.09 144.358 114.542 147.356 112.107 149.053L112.105 149.055C111.696 149.347 111.256 149.597 110.784 149.819C110.735 149.838 110.698 149.861 110.684 149.869C110.679 149.872 110.676 149.874 110.673 149.876L110.669 149.877L110.656 149.883C107.962 151.067 104.449 150.993 100.485 149.359C99.3923 148.904 98.3314 148.388 97.2864 147.783L97.2861 147.782C89.9125 143.519 84.0179 135.654 82.1493 126.143L82.1492 126.143C81.1247 120.975 80.4518 115.852 80.0541 110.85L80.0541 110.85C79.7787 107.407 79.6105 104.012 79.5799 100.725L79.5799 100.724C79.4842 92.6524 79.8758 84.8526 80.268 77.0411C80.4406 73.6037 80.6132 70.1639 80.7446 66.6977L80.7447 66.6939C80.7546 66.2968 80.7518 65.8837 80.7486 65.4017C80.7467 65.1338 80.7448 64.8447 80.7448 64.5253V64.352L80.5948 64.2654C77.5104 62.4852 74.51 60.7539 71.4471 58.9866C69.9743 58.1368 68.487 57.2786 66.969 56.4027L66.5191 56.143V56.6625C66.5191 57.2407 66.5155 57.7961 66.512 58.3374C66.5053 59.3809 66.4989 60.3722 66.5191 61.3735ZM66.5191 61.3735C66.5191 61.3734 66.5191 61.3733 66.5191 61.3732L66.8191 61.3679L66.5191 61.374C66.5191 61.3738 66.5191 61.3736 66.5191 61.3735ZM31.0305 39.8028C33.1763 36.2929 35.6286 33.2428 38.6327 31.143C38.648 31.1354 38.6633 31.1239 38.6787 31.1124C38.694 31.1009 38.7093 31.0894 38.7247 31.0817L31.0305 39.8028ZM31.0305 39.8028C30.9565 39.923 31.0053 40.177 31.0926 40.6323C31.15 40.9317 31.2242 41.3181 31.2911 41.8106L31.0305 39.8028ZM38.8716 31.3428C38.872 31.3426 38.872 31.3426 38.8716 31.3428L38.8716 31.3428Z" fill="url(#paint2_linear)" stroke="url(#paint3_linear)" stroke-width="0.6"/>
<path d="M108.708 116.56C107.757 114.001 107.006 111.349 106.593 108.882C104.799 97.9381 104.937 88.1594 105.995 78.9632C105.397 78.626 104.784 78.2888 104.186 77.9363C103.681 77.6451 103.175 77.3539 102.684 77.0627C102.056 76.6948 101.427 76.327 100.799 75.9591C99.3583 75.1315 97.9175 74.3191 96.4921 73.5528C95.6032 73.093 94.1624 73.3689 94.0092 74.1352C91.4955 87.1478 89.9168 100.774 92.5837 116.974C92.9976 119.442 93.7639 122.093 94.6989 124.653C96.5534 129.696 99.159 133.206 102.163 134.937C102.853 135.336 103.558 135.643 104.294 135.842C108.861 137.145 111.145 135.213 111.467 129.834C111.497 129.144 111.727 128.577 111.865 127.918L115.053 126.078C112.509 124.178 110.317 120.959 108.708 116.56Z" fill="url(#paint4_linear)"/>
<path d="M125.859 119.825L115.022 126.078L111.834 127.918C115.068 131.121 116.8 135.734 116.601 140.256C116.417 144.44 114.823 147.536 112.294 149.299L125.629 141.651C125.659 141.635 125.705 141.605 125.736 141.589L125.859 141.528V141.513C128.648 139.811 130.426 136.593 130.625 132.163C130.824 127.642 129.093 123.028 125.859 119.825Z" fill="url(#paint5_linear)"/>
</g>
<defs>
<filter id="filter0_d" x="0" y="0" width="199.947" height="231" filterUnits="userSpaceOnUse" color-interpolation-filters="sRGB">
<feFlood flood-opacity="0" result="BackgroundImageFix"/>
<feColorMatrix in="SourceAlpha" type="matrix" values="0 0 0 0 0 0 0 0 0 0 0 0 0 0 0 0 0 0 127 0"/>
<feOffset dx="19" dy="30"/>
<feGaussianBlur stdDeviation="25"/>
<feColorMatrix type="matrix" values="0 0 0 0 0.988235 0 0 0 0 0.505882 0 0 0 0 0.509804 0 0 0 0.6 0"/>
<feBlend mode="normal" in2="BackgroundImageFix" result="effect1_dropShadow"/>
<feBlend mode="normal" in="SourceGraphic" in2="effect1_dropShadow" result="shape"/>
</filter>
<linearGradient id="paint0_linear" x1="71.2139" y1="56.647" x2="71.2139" y2="123.672" gradientUnits="userSpaceOnUse">
<stop stop-color="#F35C5C"/>
<stop offset="1" stop-color="#E77653"/>
</linearGradient>
<linearGradient id="paint1_linear" x1="86.0206" y1="20" x2="86.0206" y2="81.0937" gradientUnits="userSpaceOnUse">
<stop stop-color="#F35C5C"/>
<stop offset="1" stop-color="#E77653"/>
</linearGradient>
<linearGradient id="paint2_linear" x1="73.9554" y1="28.0928" x2="73.9554" y2="150.99" gradientUnits="userSpaceOnUse">
<stop stop-color="#FF7A7A"/>
<stop offset="1" stop-color="#FF7A7A" stop-opacity="0.46"/>
</linearGradient>
<linearGradient id="paint3_linear" x1="44.0002" y1="17.5" x2="63.7973" y2="158.471" gradientUnits="userSpaceOnUse">
<stop stop-color="#FF0A0A"/>
<stop offset="1" stop-color="white" stop-opacity="0"/>
</linearGradient>
<linearGradient id="paint4_linear" x1="103.126" y1="73.3291" x2="103.126" y2="136.234" gradientUnits="userSpaceOnUse">
<stop stop-color="#F35C5C"/>
<stop offset="1" stop-color="#E77653"/>
</linearGradient>
<linearGradient id="paint5_linear" x1="121.237" y1="119.825" x2="121.237" y2="149.299" gradientUnits="userSpaceOnUse">
<stop stop-color="#F35C5C"/>
<stop offset="1" stop-color="#E77653"/>
</linearGradient>
<clipPath id="clip0">
<rect width="99.9475" height="131" fill="white" transform="translate(31 20)"/>
</clipPath>
</defs>
</svg>
