<svg width="245" height="231" viewBox="0 0 245 231" fill="none" xmlns="http://www.w3.org/2000/svg">
<g clip-path="url(#clip0)" filter="url(#filter0_d)">
<path d="M117.504 94.5452C118.661 92.5114 119.861 91.1412 121.189 90.3705C123.418 89.086 126.01 89.4927 129.46 91.3553C131.732 92.597 134.389 93.3677 137.196 93.4533C140.881 93.539 144.459 92.5756 147.716 90.6916C152.259 88.0798 156.18 83.7124 158.902 78.0819C164.601 66.2643 164.858 51.5779 159.416 47.1249C156.93 45.1124 152.773 45.4978 148.188 47.8313C148.616 54.0613 147.159 61.8969 143.838 68.7477C141.117 74.3782 137.196 78.7455 132.653 81.3574C129.396 83.2414 125.818 84.2262 122.132 84.1191C121.403 84.0977 120.696 84.0121 119.989 83.905C116.989 89.6212 114.14 95.4015 111.204 101.139L119.732 106.427C115.275 103.408 114.632 99.512 117.504 94.5452Z" fill="#BA68C8"/>
<path d="M168.089 31.2683L168.088 31.268C164.364 28.8151 159.141 28.491 152.207 31.2322L152.207 31.2324C150.1 32.0615 147.992 33.0825 145.926 34.2743C138.791 38.4025 132.012 44.6835 126.466 53.4007L126.465 53.401C120.763 62.3426 115.596 71.6922 110.421 81.0542C108.328 84.8409 106.234 88.6296 104.103 92.3942L104.103 92.3945C102.346 95.4912 100.633 98.6271 98.9206 101.764C95.256 108.476 91.5881 115.194 87.4661 121.547M168.089 31.2683L87.2144 121.384M168.089 31.2683C171.25 33.3426 173.389 36.9668 174.556 41.6789C175.724 46.3894 175.913 52.1586 175.198 58.4724C173.533 73.1248 167.687 87.7144 155.327 98.6369C152.189 101.409 149.142 103.623 146.226 105.303L146.226 105.303C136.493 110.929 127.933 110.765 120.562 106.334C120.505 106.299 120.45 106.266 120.396 106.233C120.18 106.101 119.99 105.985 119.811 105.855L119.811 105.855L119.803 105.849C117.618 104.37 116.413 102.704 116.075 100.834C115.736 98.9579 116.26 96.8156 117.666 94.3653L117.667 94.3643M168.089 31.2683L117.667 94.3643M87.4661 121.547L87.2144 121.384M87.4661 121.547C87.4661 121.547 87.4662 121.547 87.4662 121.547L87.2144 121.384M87.4661 121.547C84.1042 126.736 80.3438 130.392 76.6725 132.519C73.4125 134.408 70.1658 135.077 67.3111 134.48M87.2144 121.384C83.8717 126.543 80.1434 130.161 76.5221 132.259C73.308 134.122 70.1367 134.764 67.3726 134.186M67.3111 134.48C67.3115 134.48 67.3118 134.48 67.3121 134.48L67.3726 134.186M67.3111 134.48L67.3726 134.186M67.3111 134.48C62.7828 133.548 59.6358 129.5 58.5929 124.182L58.5928 124.181C58.1138 121.723 58.0932 118.967 58.5916 116.088L58.8873 116.139L58.5917 116.087L58.8873 124.124C59.9158 129.369 63.0013 133.287 67.3726 134.186M61.7789 88.0017L61.7788 88.0019C55.2504 96.1871 51.2154 104.908 48.3091 113.94L48.309 113.94C44.3084 126.356 47.4187 137.03 48.0044 138.598C49.5293 142.661 51.8095 145.648 54.6021 147.599L54.6036 147.6C55.104 147.954 55.6276 148.268 56.1562 148.564L56.4072 148.69L56.4084 148.69C61.7977 151.414 68.7583 150.827 76.0286 146.622C79.6854 144.498 83.4337 141.499 87.0799 137.558C93.0789 131.073 98.5513 122.725 103.283 114.638C105.958 110.064 108.44 105.381 110.839 100.674L110.839 100.673C111.925 98.5512 113 96.4214 114.075 94.2903C115.905 90.6655 117.736 87.0371 119.626 83.4367M61.7789 88.0017L119.891 83.5759M61.7789 88.0017C66.6863 81.8408 72.2081 77.0927 77.7005 73.9235C88.303 67.8277 98.7223 67.6233 104.665 74.4808C105.704 75.6833 106.299 77.1058 106.261 78.8057C106.222 80.5135 105.544 82.5302 103.977 84.9095C102.598 86.9869 101.258 88.3361 100.008 89.0531M61.7789 88.0017L100.008 89.0531M119.626 83.4367C119.626 83.4367 119.626 83.4366 119.626 83.4365L119.891 83.5759M119.626 83.4367C119.625 83.4371 119.625 83.4374 119.625 83.4377L119.891 83.5759M119.626 83.4367C119.776 83.1469 119.926 82.8625 120.076 82.5793C120.226 82.2955 120.376 82.0128 120.525 81.725L120.526 81.7225C120.664 81.4634 120.801 81.2041 120.939 80.9448C126.047 71.3163 131.204 61.5945 138.857 53.9692M119.891 83.5759C120.041 83.2869 120.191 83.0032 120.341 82.7196C120.491 82.4359 120.641 82.1522 120.791 81.8632C120.926 81.6094 121.061 81.3556 121.195 81.1017C126.31 71.4608 131.449 61.7745 139.069 54.1817M138.857 53.9692C138.857 53.9693 138.857 53.9694 138.857 53.9695L139.069 54.1817M138.857 53.9692L139.069 54.1817M138.857 53.9692C141.381 51.4475 144.037 49.4186 146.59 47.9487L146.591 47.9481C147.046 47.6882 147.502 47.4498 147.958 47.2327M139.069 54.1817C141.576 51.6769 144.212 49.6644 146.74 48.2086C147.19 47.9517 147.64 47.7162 148.09 47.5022M147.958 47.2327C147.957 47.2333 147.956 47.2338 147.955 47.2343L148.09 47.5022M147.958 47.2327C147.959 47.2323 147.96 47.2318 147.961 47.2313L148.09 47.5022M147.958 47.2327C150.273 46.0656 152.502 45.3707 154.478 45.228C156.455 45.0851 158.199 45.4948 159.507 46.563M148.09 47.5022C152.675 45.19 156.854 44.7833 159.318 46.7957M159.318 46.7957L159.507 46.563M159.318 46.7957L159.508 46.5633C159.508 46.5632 159.508 46.5631 159.507 46.563M159.318 46.7957L147.769 90.6221M159.507 46.563C160.931 47.722 161.96 49.534 162.623 51.7547C163.286 53.9781 163.588 56.6333 163.539 59.5095C163.442 65.2613 161.943 71.9353 159.074 77.883L159.074 77.8832C156.331 83.559 152.371 87.9756 147.769 90.6221M147.769 90.6221L147.619 90.3624M147.769 90.6221L147.619 90.3624M147.769 90.6221C147.769 90.6222 147.768 90.6224 147.768 90.6225L147.619 90.3624M147.769 90.6221L147.619 90.3624M147.769 90.6221C144.468 92.5314 140.835 93.5328 137.089 93.424M147.769 90.6221L137.089 93.424M137.089 93.424L137.089 93.424C134.232 93.3369 131.551 92.5527 129.22 91.2901M137.089 93.424L129.362 91.0261M129.22 91.2901L129.362 91.0261M129.22 91.2901C125.798 89.4426 123.331 89.0969 121.242 90.3008L129.362 91.0261M129.22 91.2901C129.22 91.29 129.22 91.29 129.219 91.2899L129.362 91.0261M117.667 94.3643C118.811 92.3535 119.978 91.0345 121.241 90.3012L117.667 94.3643ZM100.008 89.0531C99.0977 89.574 98.2319 89.7735 97.4224 89.6997M100.008 89.0531L97.4224 89.6997M97.4224 89.6997C96.6128 89.626 95.8336 89.2766 95.1007 88.6563L97.4224 89.6997Z" fill="url(#paint0_linear)" stroke="url(#paint1_linear)" stroke-width="0.6"/>
<path d="M88.1049 63.5025H88.062C81.8052 58.3644 72.2056 59.0709 62.5418 64.6372C57.0135 67.8271 51.4638 72.6012 46.5355 78.7884C39.9787 87.0093 35.9289 95.7869 33.0147 104.821C28.9863 117.345 32.1148 128.093 32.7147 129.698C34.2575 133.787 36.5503 136.827 39.3787 138.818V138.84L39.8072 139.097C40.1501 139.332 40.4929 139.546 40.8572 139.739L54.5065 148.174C51.6567 146.183 49.3425 143.143 47.7997 139.033C47.1997 137.405 44.0713 126.68 48.0997 114.156C51.0138 105.1 55.0636 96.3435 61.6205 88.1226C66.5488 81.9569 72.0985 77.1827 77.6268 73.9714C86.2835 68.9832 94.8974 67.8699 101.09 71.3809L96.8473 68.8119L88.1049 63.5025Z" fill="#BA68C8"/>
<path d="M152.751 21.6913C148.959 19.4648 143.773 19.2935 137.088 21.9268C134.966 22.7618 132.845 23.7894 130.767 24.9883C123.588 29.1416 116.774 35.4571 111.203 44.2133C106.125 52.1774 101.475 60.4839 96.8468 68.8119L101.089 71.381L101.797 71.8092L101.775 71.8306C102.932 72.5799 104.004 73.479 104.968 74.5923C107.132 77.0971 107.475 80.5867 104.304 85.3823C102.932 87.4803 101.561 88.8719 100.232 89.6212C98.3253 90.7131 96.5254 90.499 94.9826 89.193C92.6899 87.2448 90.1829 86.0245 87.3973 85.7676C82.4047 94.6951 77.7121 103.858 72.1838 112.357C68.8411 117.517 65.1127 121.135 61.4914 123.233C60.6343 123.725 59.7987 124.111 58.9416 124.432C59.9487 129.698 63.0342 133.595 67.4269 134.494C70.191 135.072 73.3409 134.43 76.5764 132.567C80.1977 130.469 83.926 126.851 87.2687 121.691C93.3113 112.379 98.3682 102.295 103.896 92.5542C111.289 79.5163 118.253 66.1144 126.267 53.5475C131.859 44.7913 138.652 38.4544 145.83 34.3225C147.909 33.1236 150.009 32.1174 152.151 31.261C159.137 28.4993 164.472 28.8204 168.308 31.3252L152.751 21.6913Z" fill="#BA68C8"/>
<path d="M117.504 94.5452C118.661 92.5114 119.861 91.1412 121.189 90.3705C123.418 89.086 126.01 89.4927 129.46 91.3553C131.732 92.597 134.389 93.3677 137.196 93.4533C140.881 93.539 144.459 92.5756 147.716 90.6916C152.259 88.0798 156.18 83.7124 158.902 78.0819C164.601 66.2643 164.858 51.5779 159.416 47.1249C156.93 45.1124 152.773 45.4978 148.188 47.8313C148.616 54.0613 147.159 61.8969 143.838 68.7477C141.117 74.3782 137.196 78.7455 132.653 81.3574C129.396 83.2414 125.818 84.2262 122.132 84.1191C121.403 84.0977 120.696 84.0121 119.989 83.905C116.989 89.6212 114.14 95.4015 111.204 101.139L119.732 106.427C115.275 103.408 114.632 99.512 117.504 94.5452Z" fill="#F3D25C"/>
<path d="M88.1049 63.5025H88.062C81.8052 58.3644 72.2056 59.0709 62.5418 64.6372C57.0135 67.8271 51.4638 72.6012 46.5355 78.7884C39.9787 87.0093 35.9289 95.7869 33.0147 104.821C28.9863 117.345 32.1148 128.093 32.7147 129.698C34.2575 133.787 36.5503 136.827 39.3787 138.818V138.84L39.8072 139.097C40.1501 139.332 40.4929 139.546 40.8572 139.739L54.5065 148.174C51.6567 146.183 49.3425 143.143 47.7997 139.033C47.1997 137.405 44.0713 126.68 48.0997 114.156C51.0138 105.1 55.0636 96.3435 61.6205 88.1226C66.5488 81.9569 72.0985 77.1827 77.6268 73.9714C86.2835 68.9832 94.8974 67.8699 101.09 71.3809L96.8473 68.8119L88.1049 63.5025Z" fill="url(#paint2_linear)"/>
<path d="M152.751 21.6913C148.959 19.4648 143.773 19.2935 137.088 21.9268C134.966 22.7618 132.845 23.7894 130.767 24.9883C123.588 29.1416 116.774 35.4571 111.203 44.2133C106.125 52.1774 101.475 60.4839 96.8468 68.8119L101.089 71.381L101.797 71.8092L101.775 71.8306C102.932 72.5799 104.004 73.479 104.968 74.5923C107.132 77.0971 107.475 80.5867 104.304 85.3823C102.932 87.4803 101.561 88.8719 100.232 89.6212C98.3253 90.7131 96.5254 90.499 94.9826 89.193C92.6899 87.2448 90.1829 86.0245 87.3973 85.7676C82.4047 94.6951 77.7121 103.858 72.1838 112.357C68.8411 117.517 65.1127 121.135 61.4914 123.233C60.6343 123.725 59.7987 124.111 58.9416 124.432C59.9487 129.698 63.0342 133.595 67.4269 134.494C70.191 135.072 73.3409 134.43 76.5764 132.567C80.1977 130.469 83.926 126.851 87.2687 121.691C93.3113 112.379 98.3682 102.295 103.896 92.5542C111.289 79.5163 118.253 66.1144 126.267 53.5475C131.859 44.7913 138.652 38.4544 145.83 34.3225C147.909 33.1236 150.009 32.1174 152.151 31.261C159.137 28.4993 164.472 28.8204 168.308 31.3252L152.751 21.6913Z" fill="url(#paint3_linear)"/>
<path d="M101.112 71.4023C101.347 71.5308 101.562 71.7021 101.797 71.8305L101.819 71.8091L101.112 71.4023Z" fill="#455A64"/>
</g>
<defs>
<filter id="filter0_d" x="0" y="0" width="245" height="231" filterUnits="userSpaceOnUse" color-interpolation-filters="sRGB">
<feFlood flood-opacity="0" result="BackgroundImageFix"/>
<feColorMatrix in="SourceAlpha" type="matrix" values="0 0 0 0 0 0 0 0 0 0 0 0 0 0 0 0 0 0 127 0"/>
<feOffset dx="19" dy="30"/>
<feGaussianBlur stdDeviation="25"/>
<feColorMatrix type="matrix" values="0 0 0 0 1 0 0 0 0 0.886275 0 0 0 0 0.486275 0 0 0 0.6 0"/>
<feBlend mode="normal" in2="BackgroundImageFix" result="effect1_dropShadow"/>
<feBlend mode="normal" in="SourceGraphic" in2="effect1_dropShadow" result="shape"/>
</filter>
<linearGradient id="paint0_linear" x1="110.959" y1="29" x2="110.959" y2="150.65" gradientUnits="userSpaceOnUse">
<stop stop-color="#FFE27A"/>
<stop offset="1" stop-color="#FFE27A" stop-opacity="0.81"/>
</linearGradient>
<linearGradient id="paint1_linear" x1="155" y1="29" x2="86.5" y2="148" gradientUnits="userSpaceOnUse">
<stop stop-color="white"/>
<stop offset="1" stop-color="white" stop-opacity="0"/>
</linearGradient>
<linearGradient id="paint2_linear" x1="66.0406" y1="60.0261" x2="66.0406" y2="148.174" gradientUnits="userSpaceOnUse">
<stop stop-color="#F3D25C"/>
<stop offset="1" stop-color="#E7C653"/>
</linearGradient>
<linearGradient id="paint3_linear" x1="113.625" y1="19.9866" x2="113.625" y2="134.699" gradientUnits="userSpaceOnUse">
<stop stop-color="#FDE284"/>
<stop offset="1" stop-color="#F2C72D"/>
</linearGradient>
<clipPath id="clip0">
<rect width="145" height="131" fill="white" transform="translate(31 20)"/>
</clipPath>
</defs>
</svg>
