<svg width="210" height="220" viewBox="0 0 210 220" fill="none" xmlns="http://www.w3.org/2000/svg">
<g clip-path="url(#clip0)" filter="url(#filter0_d)">
<path d="M101.824 96.8902L91.733 91.074C91.6396 91.0275 91.5461 90.9809 91.4761 90.9112L91.1257 90.7018L91.1023 90.725C88.3226 89.3524 84.6086 89.8642 80.334 92.3303C71.2941 97.5416 64.6369 108.709 64.6836 120.853C64.707 126.832 66.3187 130.694 69.005 132.485V132.509L69.075 132.555C69.1918 132.625 69.3086 132.695 69.4254 132.765L80.3807 139.069L84.2582 135.254L98.1567 126.39L103.179 110.081L101.824 96.8902Z" fill="url(#paint0_linear)"/>
<path d="M107.196 109.058C107.22 121.318 100.562 132.369 91.4524 137.627C82.4126 142.838 75.732 139.442 75.6852 127.181C75.6619 115.014 82.2958 103.847 91.3356 98.6585C100.446 93.4006 107.149 96.9136 107.196 109.058ZM86.1967 121.132C86.22 128.275 88.5793 129.717 91.4057 128.088C94.3956 126.367 96.568 122.319 96.5446 115.177C96.5212 108.034 94.3255 106.475 91.3356 108.197C88.5326 109.826 86.1733 113.99 86.1967 121.132Z" fill="url(#paint1_linear)"/>
<path d="M140.833 44.0325L48.7761 97.1228L48.8462 119.062L140.88 65.9479L140.833 44.0325Z" fill="url(#paint2_linear)"/>
<path d="M31 86.6538L31.0701 108.593L48.8461 119.062L48.776 97.123L31 86.6538Z" fill="url(#paint3_linear)"/>
<path d="M140.833 44.0325L123.057 33.54L31 86.6536L48.776 97.1228L140.833 44.0325Z" fill="url(#paint4_linear)"/>
<path d="M101.824 26.9095L91.733 21.0933C91.6396 21.0468 91.5461 21.0002 91.4761 20.9304L91.1257 20.7211L91.1023 20.7443C88.3226 19.3717 84.6086 19.8835 80.334 22.3496C71.2941 27.5609 64.6369 38.728 64.6836 50.8723C64.707 56.8513 66.3187 60.7133 69.005 62.5047V62.528L69.075 62.5745C69.1918 62.6443 69.3086 62.7141 69.4254 62.7839L80.3807 69.0886L84.2582 65.2732L98.1567 56.4093L103.179 40.1007L101.824 26.9095Z" fill="url(#paint5_linear)"/>
<path d="M107.196 39.0769C107.22 51.3375 100.562 62.3883 91.4524 67.6461C82.4126 72.8575 75.732 69.4608 75.6852 57.2002C75.6619 45.0327 82.2958 33.8656 91.3356 28.6775C100.446 23.4197 107.149 26.9094 107.196 39.0769ZM86.1967 51.1514C86.22 58.2937 88.5793 59.7361 91.4057 58.1076C94.3956 56.386 96.568 52.3379 96.5446 45.1956C96.5212 38.0533 94.3255 36.4945 91.3356 38.2161C88.5326 39.8447 86.1733 44.0091 86.1967 51.1514Z" fill="url(#paint6_linear)"/>
</g>
<defs>
<filter id="filter0_d" x="0" y="0" width="209.88" height="220" filterUnits="userSpaceOnUse" color-interpolation-filters="sRGB">
<feFlood flood-opacity="0" result="BackgroundImageFix"/>
<feColorMatrix in="SourceAlpha" type="matrix" values="0 0 0 0 0 0 0 0 0 0 0 0 0 0 0 0 0 0 127 0"/>
<feOffset dx="19" dy="30"/>
<feGaussianBlur stdDeviation="25"/>
<feColorMatrix type="matrix" values="0 0 0 0 0.282353 0 0 0 0 0.807843 0 0 0 0 0.576471 0 0 0 0.69 0"/>
<feBlend mode="normal" in2="BackgroundImageFix" result="effect1_dropShadow"/>
<feBlend mode="normal" in="SourceGraphic" in2="effect1_dropShadow" result="shape"/>
</filter>
<linearGradient id="paint0_linear" x1="83.9311" y1="89.9785" x2="83.9311" y2="139.069" gradientUnits="userSpaceOnUse">
<stop stop-color="#25A670"/>
<stop offset="1" stop-color="#38BC7C"/>
</linearGradient>
<linearGradient id="paint1_linear" x1="91.4407" y1="96.2908" x2="91.4407" y2="139.986" gradientUnits="userSpaceOnUse">
<stop stop-color="#50D79E"/>
<stop offset="1" stop-color="#38BC7C"/>
</linearGradient>
<linearGradient id="paint2_linear" x1="94.8279" y1="44.0325" x2="94.8279" y2="119.062" gradientUnits="userSpaceOnUse">
<stop stop-color="#50D79E"/>
<stop offset="1" stop-color="#38BC7C"/>
</linearGradient>
<linearGradient id="paint3_linear" x1="39.923" y1="86.6538" x2="39.923" y2="119.062" gradientUnits="userSpaceOnUse">
<stop stop-color="#25A670"/>
<stop offset="1" stop-color="#38BC7C"/>
</linearGradient>
<linearGradient id="paint4_linear" x1="85.9164" y1="33.54" x2="85.9164" y2="97.1228" gradientUnits="userSpaceOnUse">
<stop stop-color="#25A670"/>
<stop offset="1" stop-color="#38BC7C"/>
</linearGradient>
<linearGradient id="paint5_linear" x1="83.9311" y1="19.9978" x2="83.9311" y2="69.0886" gradientUnits="userSpaceOnUse">
<stop stop-color="#25A670"/>
<stop offset="1" stop-color="#38BC7C"/>
</linearGradient>
<linearGradient id="paint6_linear" x1="91.4407" y1="26.3054" x2="91.4407" y2="70.0053" gradientUnits="userSpaceOnUse">
<stop stop-color="#50D79E"/>
<stop offset="1" stop-color="#38BC7C"/>
</linearGradient>
<clipPath id="clip0">
<rect width="109.88" height="120" fill="white" transform="translate(31 20)"/>
</clipPath>
</defs>
</svg>
