<svg width="41" height="28" viewBox="0 0 41 28" fill="none" xmlns="http://www.w3.org/2000/svg">
<path fill-rule="evenodd" clip-rule="evenodd" d="M33.8922 1.80867C34.2812 1.63407 34.3469 1.26409 34.5594 1.01195C34.683 0.865077 34.9425 0.651641 35.0029 0.760352C35.4308 1.53131 36.6795 1.43075 36.8108 2.48555C37.3451 6.76612 39.131 10.7261 39.9967 14.9217C40.0579 15.2168 40.1381 15.5074 40.202 15.8018C40.5734 17.5016 40.5728 17.5017 38.9065 17.4778C37.192 17.4534 37.064 17.3842 36.421 15.6902C35.085 12.1709 33.7682 8.64362 32.634 5.05283C32.28 3.93307 32.0382 2.78189 32.4959 1.62367C32.6181 1.31349 32.776 1.0041 32.9797 0.743361C33.1587 0.514713 33.4277 0.249203 33.746 0.404131C34.0765 0.565286 33.8325 0.861857 33.7796 1.10088C33.7314 1.31963 33.6661 1.53886 33.8922 1.80867Z" fill="#323232"/>
<path fill-rule="evenodd" clip-rule="evenodd" d="M17.1831 7.69582C18.4038 8.52451 19.1408 9.74498 19.8234 11.0089C21.3051 13.7539 22.3374 16.7173 23.9045 19.4219C24.2075 19.9447 24.0648 20.177 23.4201 20.3205C21.5466 20.7371 20.6742 19.5343 19.9169 18.2211C18.397 15.5848 16.9517 12.9059 15.462 10.2528C15.0759 9.56509 14.6455 8.9022 14.2215 8.23642C13.9768 7.85132 14.102 7.51739 14.3274 7.19447C14.5609 6.8604 14.8338 6.90153 15.2107 7.01167C15.881 7.20725 16.5777 7.30921 17.1831 7.69582Z" fill="#323232"/>
<path fill-rule="evenodd" clip-rule="evenodd" d="M5.01813 25.2517C3.68929 24.4685 2.35723 23.6915 1.03443 22.8989C0.613479 22.6464 0.16862 22.3799 0.359223 21.7547C0.533629 21.1839 1.00893 21.4102 1.39062 21.3467C2.12695 21.2239 2.81611 21.3729 3.48559 21.6401C6.39874 22.8008 9.1748 24.1991 11.5436 26.3054C11.7995 26.5336 12.1109 26.7076 12.0488 27.109C11.9791 27.5626 11.5616 27.4512 11.2761 27.5863C9.94431 28.2177 8.89716 27.601 7.82738 26.9248C6.90631 26.343 5.95274 25.8122 5.01392 25.2588L5.01813 25.2517Z" fill="#323232"/>
</svg>
